<mxfile host="app.diagrams.net" agent="Mozilla/5.0 (Windows NT 10.0; Win64; x64; rv:133.0) Gecko/20100101 Firefox/133.0" version="26.0.4">
  <diagram name="Page-1" id="Zfw16q6aDVAe8OGPtLQg">
    <mxGraphModel dx="1461" dy="598" grid="1" gridSize="10" guides="1" tooltips="1" connect="1" arrows="1" fold="1" page="1" pageScale="1" pageWidth="827" pageHeight="1169" math="0" shadow="0">
      <root>
        <mxCell id="0" />
        <mxCell id="1" parent="0" />
        <mxCell id="PC9kTfX994w1YG4X2F00-1" value="" style="rounded=0;whiteSpace=wrap;html=1;" vertex="1" parent="1">
          <mxGeometry x="20" y="20" width="790" height="570" as="geometry" />
        </mxCell>
        <mxCell id="PC9kTfX994w1YG4X2F00-2" value="&lt;div align=&quot;left&quot;&gt;&amp;nbsp; Search...&lt;/div&gt;" style="rounded=0;whiteSpace=wrap;html=1;align=left;" vertex="1" parent="1">
          <mxGeometry x="40" y="40" width="310" height="30" as="geometry" />
        </mxCell>
        <mxCell id="PC9kTfX994w1YG4X2F00-4" value="" style="triangle;whiteSpace=wrap;html=1;rotation=90;" vertex="1" parent="1">
          <mxGeometry x="70" y="100" width="20" height="25" as="geometry" />
        </mxCell>
        <mxCell id="PC9kTfX994w1YG4X2F00-6" value="&lt;h1 style=&quot;margin-top: 0px;&quot;&gt;Températures&lt;br&gt;&lt;/h1&gt;" style="text;html=1;whiteSpace=wrap;overflow=hidden;rounded=0;" vertex="1" parent="1">
          <mxGeometry x="105" y="90" width="180" height="50" as="geometry" />
        </mxCell>
        <mxCell id="PC9kTfX994w1YG4X2F00-7" value="" style="triangle;whiteSpace=wrap;html=1;rotation=-90;" vertex="1" parent="1">
          <mxGeometry x="70" y="280" width="20" height="25" as="geometry" />
        </mxCell>
        <mxCell id="PC9kTfX994w1YG4X2F00-8" value="&lt;h1 style=&quot;margin-top: 0px;&quot;&gt;Humidité&lt;br&gt;&lt;/h1&gt;" style="text;html=1;whiteSpace=wrap;overflow=hidden;rounded=0;" vertex="1" parent="1">
          <mxGeometry x="105" y="270" width="180" height="50" as="geometry" />
        </mxCell>
        <mxCell id="PC9kTfX994w1YG4X2F00-9" value="" style="triangle;whiteSpace=wrap;html=1;rotation=-90;" vertex="1" parent="1">
          <mxGeometry x="70" y="330" width="20" height="25" as="geometry" />
        </mxCell>
        <mxCell id="PC9kTfX994w1YG4X2F00-10" value="&lt;h1 style=&quot;margin-top: 0px;&quot;&gt;Mouvement&lt;br&gt;&lt;/h1&gt;" style="text;html=1;whiteSpace=wrap;overflow=hidden;rounded=0;" vertex="1" parent="1">
          <mxGeometry x="105" y="320" width="180" height="50" as="geometry" />
        </mxCell>
        <mxCell id="PC9kTfX994w1YG4X2F00-11" value="" style="rounded=0;whiteSpace=wrap;html=1;" vertex="1" parent="1">
          <mxGeometry x="70" y="140" width="160" height="80" as="geometry" />
        </mxCell>
        <mxCell id="PC9kTfX994w1YG4X2F00-13" value="Capteur Température Salon" style="text;html=1;align=center;verticalAlign=middle;whiteSpace=wrap;rounded=0;" vertex="1" parent="1">
          <mxGeometry x="70" y="140" width="160" height="30" as="geometry" />
        </mxCell>
        <mxCell id="PC9kTfX994w1YG4X2F00-14" value="19.5 °C" style="rounded=0;whiteSpace=wrap;html=1;" vertex="1" parent="1">
          <mxGeometry x="95" y="182.5" width="110" height="25" as="geometry" />
        </mxCell>
        <mxCell id="PC9kTfX994w1YG4X2F00-15" value="" style="rounded=0;whiteSpace=wrap;html=1;" vertex="1" parent="1">
          <mxGeometry x="254" y="140" width="160" height="80" as="geometry" />
        </mxCell>
        <mxCell id="PC9kTfX994w1YG4X2F00-16" value="Capteur Temp Cuisine" style="text;html=1;align=center;verticalAlign=middle;whiteSpace=wrap;rounded=0;" vertex="1" parent="1">
          <mxGeometry x="254" y="140" width="160" height="30" as="geometry" />
        </mxCell>
        <mxCell id="PC9kTfX994w1YG4X2F00-17" value="18.7 °C" style="rounded=0;whiteSpace=wrap;html=1;" vertex="1" parent="1">
          <mxGeometry x="279" y="182.5" width="110" height="25" as="geometry" />
        </mxCell>
        <mxCell id="PC9kTfX994w1YG4X2F00-18" value="" style="rounded=0;whiteSpace=wrap;html=1;" vertex="1" parent="1">
          <mxGeometry x="440" y="140" width="160" height="80" as="geometry" />
        </mxCell>
        <mxCell id="PC9kTfX994w1YG4X2F00-19" value="Capteur Température Extérieur" style="text;html=1;align=center;verticalAlign=middle;whiteSpace=wrap;rounded=0;" vertex="1" parent="1">
          <mxGeometry x="440" y="140" width="160" height="30" as="geometry" />
        </mxCell>
        <mxCell id="PC9kTfX994w1YG4X2F00-20" value="12.1 °C" style="rounded=0;whiteSpace=wrap;html=1;" vertex="1" parent="1">
          <mxGeometry x="465" y="182.5" width="110" height="25" as="geometry" />
        </mxCell>
      </root>
    </mxGraphModel>
  </diagram>
</mxfile>
